# xmcd
#
# Track frame offsets:
#	150
#	21167
#	47917
#	77652
#	108182
#	133160
#	156207
#	182659
#	210787
#
# Disc length: 3099 seconds
#
# Revision: 0
# Processed by: cddbd v1.4b42PL1 Copyright (c) Steve Scherf et al.
# Submitted via: EasyCDDAExtractor 4.5.0.2
#
DISCID=6c0c1909
DTITLE=James Blood Ulmer - Forbidden Blues
DYEAR=1996
DGENRE=Blues
TTITLE0=What Is
TTITLE1=Forbidden Blues
TTITLE2=Eviction
TTITLE3=Do You Wanna
TTITLE4=Forget Not
TTITLE5=High Yellow
TTITLE6=Hymn
TTITLE7=We Got To Get Together
TTITLE8=Inspiration
EXTD=
EXTT0=
EXTT1=
EXTT2=
EXTT3=
EXTT4=
EXTT5=
EXTT6=
EXTT7=
EXTT8=
PLAYORDER=
